<svg xmlns="http://www.w3.org/2000/svg" width="100%" height="100%" viewBox="0 0 22 22" fill-rule="evenodd" stroke-linejoin="round" stroke-miterlimit="2" xmlns:v="https://vecta.io/nano"><path d="M7.161 15.218V8.64c0-.562.66-.88 1.1-.489l2.029 2.959a1.11 1.11 0 0 0 1.418 0l1.981-2.934c.44-.367 1.1-.073 1.1.489v3.472c0 1.687 1.125 3.056 2.812 3.056h.049c1.443 0 2.69-.978 3.032-2.371.171-.734.318-1.492.318-2.079-.024-5.746-4.89-10.098-10.71-9.707a10.03 10.03 0 0 0-9.267 9.267c-.391 5.82 4.206 10.685 9.976 10.685" fill="none" stroke="#000" stroke-width="1.5"/></svg>